<mxfile host="app.diagrams.net" modified="2022-04-24T07:57:08.900Z" agent="5.0 (Windows NT 10.0; Win64; x64) AppleWebKit/537.36 (KHTML, like Gecko) Chrome/100.0.4896.127 Safari/537.36" etag="VCaQ_uYVfAgpkW7IiY_M" version="17.4.1" type="github">
  <diagram id="C5RBs43oDa-KdzZeNtuy" name="Page-1">
    <mxGraphModel dx="1384" dy="772" grid="1" gridSize="10" guides="1" tooltips="1" connect="1" arrows="1" fold="1" page="1" pageScale="1" pageWidth="827" pageHeight="1169" math="0" shadow="0">
      <root>
        <mxCell id="WIyWlLk6GJQsqaUBKTNV-0" />
        <mxCell id="WIyWlLk6GJQsqaUBKTNV-1" parent="WIyWlLk6GJQsqaUBKTNV-0" />
        <mxCell id="zkfFHV4jXpPFQw0GAbJ--0" value="Person" style="swimlane;fontStyle=2;align=center;verticalAlign=top;childLayout=stackLayout;horizontal=1;startSize=26;horizontalStack=0;resizeParent=1;resizeLast=0;collapsible=1;marginBottom=0;rounded=0;shadow=0;strokeWidth=1;" parent="WIyWlLk6GJQsqaUBKTNV-1" vertex="1">
          <mxGeometry x="220" y="40" width="160" height="138" as="geometry">
            <mxRectangle x="230" y="140" width="160" height="26" as="alternateBounds" />
          </mxGeometry>
        </mxCell>
        <mxCell id="zkfFHV4jXpPFQw0GAbJ--1" value="Name" style="text;align=left;verticalAlign=top;spacingLeft=4;spacingRight=4;overflow=hidden;rotatable=0;points=[[0,0.5],[1,0.5]];portConstraint=eastwest;" parent="zkfFHV4jXpPFQw0GAbJ--0" vertex="1">
          <mxGeometry y="26" width="160" height="26" as="geometry" />
        </mxCell>
        <mxCell id="zkfFHV4jXpPFQw0GAbJ--2" value="Phone Number" style="text;align=left;verticalAlign=top;spacingLeft=4;spacingRight=4;overflow=hidden;rotatable=0;points=[[0,0.5],[1,0.5]];portConstraint=eastwest;rounded=0;shadow=0;html=0;" parent="zkfFHV4jXpPFQw0GAbJ--0" vertex="1">
          <mxGeometry y="52" width="160" height="26" as="geometry" />
        </mxCell>
        <mxCell id="zkfFHV4jXpPFQw0GAbJ--3" value="Email Address" style="text;align=left;verticalAlign=top;spacingLeft=4;spacingRight=4;overflow=hidden;rotatable=0;points=[[0,0.5],[1,0.5]];portConstraint=eastwest;rounded=0;shadow=0;html=0;" parent="zkfFHV4jXpPFQw0GAbJ--0" vertex="1">
          <mxGeometry y="78" width="160" height="26" as="geometry" />
        </mxCell>
        <mxCell id="zkfFHV4jXpPFQw0GAbJ--4" value="" style="line;html=1;strokeWidth=1;align=left;verticalAlign=middle;spacingTop=-1;spacingLeft=3;spacingRight=3;rotatable=0;labelPosition=right;points=[];portConstraint=eastwest;" parent="zkfFHV4jXpPFQw0GAbJ--0" vertex="1">
          <mxGeometry y="104" width="160" height="8" as="geometry" />
        </mxCell>
        <mxCell id="zkfFHV4jXpPFQw0GAbJ--5" value="Purchase Parking Pass" style="text;align=left;verticalAlign=top;spacingLeft=4;spacingRight=4;overflow=hidden;rotatable=0;points=[[0,0.5],[1,0.5]];portConstraint=eastwest;" parent="zkfFHV4jXpPFQw0GAbJ--0" vertex="1">
          <mxGeometry y="112" width="160" height="26" as="geometry" />
        </mxCell>
        <mxCell id="zkfFHV4jXpPFQw0GAbJ--6" value="Student" style="swimlane;fontStyle=0;align=center;verticalAlign=top;childLayout=stackLayout;horizontal=1;startSize=26;horizontalStack=0;resizeParent=1;resizeLast=0;collapsible=1;marginBottom=0;rounded=0;shadow=0;strokeWidth=1;" parent="WIyWlLk6GJQsqaUBKTNV-1" vertex="1">
          <mxGeometry x="120" y="280" width="160" height="138" as="geometry">
            <mxRectangle x="130" y="380" width="160" height="26" as="alternateBounds" />
          </mxGeometry>
        </mxCell>
        <mxCell id="zkfFHV4jXpPFQw0GAbJ--7" value="Student Number" style="text;align=left;verticalAlign=top;spacingLeft=4;spacingRight=4;overflow=hidden;rotatable=0;points=[[0,0.5],[1,0.5]];portConstraint=eastwest;" parent="zkfFHV4jXpPFQw0GAbJ--6" vertex="1">
          <mxGeometry y="26" width="160" height="26" as="geometry" />
        </mxCell>
        <mxCell id="zkfFHV4jXpPFQw0GAbJ--8" value="Average Mark" style="text;align=left;verticalAlign=top;spacingLeft=4;spacingRight=4;overflow=hidden;rotatable=0;points=[[0,0.5],[1,0.5]];portConstraint=eastwest;rounded=0;shadow=0;html=0;" parent="zkfFHV4jXpPFQw0GAbJ--6" vertex="1">
          <mxGeometry y="52" width="160" height="26" as="geometry" />
        </mxCell>
        <mxCell id="zkfFHV4jXpPFQw0GAbJ--9" value="" style="line;html=1;strokeWidth=1;align=left;verticalAlign=middle;spacingTop=-1;spacingLeft=3;spacingRight=3;rotatable=0;labelPosition=right;points=[];portConstraint=eastwest;" parent="zkfFHV4jXpPFQw0GAbJ--6" vertex="1">
          <mxGeometry y="78" width="160" height="8" as="geometry" />
        </mxCell>
        <mxCell id="zkfFHV4jXpPFQw0GAbJ--10" value="Is Eligible To Enroll" style="text;align=left;verticalAlign=top;spacingLeft=4;spacingRight=4;overflow=hidden;rotatable=0;points=[[0,0.5],[1,0.5]];portConstraint=eastwest;fontStyle=4" parent="zkfFHV4jXpPFQw0GAbJ--6" vertex="1">
          <mxGeometry y="86" width="160" height="26" as="geometry" />
        </mxCell>
        <mxCell id="zkfFHV4jXpPFQw0GAbJ--11" value="Get Seminars Taken" style="text;align=left;verticalAlign=top;spacingLeft=4;spacingRight=4;overflow=hidden;rotatable=0;points=[[0,0.5],[1,0.5]];portConstraint=eastwest;" parent="zkfFHV4jXpPFQw0GAbJ--6" vertex="1">
          <mxGeometry y="112" width="160" height="26" as="geometry" />
        </mxCell>
        <mxCell id="zkfFHV4jXpPFQw0GAbJ--12" value="" style="endArrow=block;endSize=10;endFill=0;shadow=0;strokeWidth=1;rounded=0;edgeStyle=elbowEdgeStyle;elbow=vertical;" parent="WIyWlLk6GJQsqaUBKTNV-1" source="zkfFHV4jXpPFQw0GAbJ--6" target="zkfFHV4jXpPFQw0GAbJ--0" edge="1">
          <mxGeometry width="160" relative="1" as="geometry">
            <mxPoint x="200" y="123" as="sourcePoint" />
            <mxPoint x="200" y="123" as="targetPoint" />
          </mxGeometry>
        </mxCell>
        <mxCell id="zkfFHV4jXpPFQw0GAbJ--13" value="Professor" style="swimlane;fontStyle=0;align=center;verticalAlign=top;childLayout=stackLayout;horizontal=1;startSize=26;horizontalStack=0;resizeParent=1;resizeLast=0;collapsible=1;marginBottom=0;rounded=0;shadow=0;strokeWidth=1;" parent="WIyWlLk6GJQsqaUBKTNV-1" vertex="1">
          <mxGeometry x="330" y="280" width="160" height="70" as="geometry">
            <mxRectangle x="340" y="380" width="170" height="26" as="alternateBounds" />
          </mxGeometry>
        </mxCell>
        <mxCell id="zkfFHV4jXpPFQw0GAbJ--14" value="Salary" style="text;align=left;verticalAlign=top;spacingLeft=4;spacingRight=4;overflow=hidden;rotatable=0;points=[[0,0.5],[1,0.5]];portConstraint=eastwest;" parent="zkfFHV4jXpPFQw0GAbJ--13" vertex="1">
          <mxGeometry y="26" width="160" height="26" as="geometry" />
        </mxCell>
        <mxCell id="zkfFHV4jXpPFQw0GAbJ--15" value="" style="line;html=1;strokeWidth=1;align=left;verticalAlign=middle;spacingTop=-1;spacingLeft=3;spacingRight=3;rotatable=0;labelPosition=right;points=[];portConstraint=eastwest;" parent="zkfFHV4jXpPFQw0GAbJ--13" vertex="1">
          <mxGeometry y="52" width="160" height="8" as="geometry" />
        </mxCell>
        <mxCell id="zkfFHV4jXpPFQw0GAbJ--16" value="" style="endArrow=block;endSize=10;endFill=0;shadow=0;strokeWidth=1;rounded=0;edgeStyle=elbowEdgeStyle;elbow=vertical;" parent="WIyWlLk6GJQsqaUBKTNV-1" source="zkfFHV4jXpPFQw0GAbJ--13" target="zkfFHV4jXpPFQw0GAbJ--0" edge="1">
          <mxGeometry width="160" relative="1" as="geometry">
            <mxPoint x="210" y="293" as="sourcePoint" />
            <mxPoint x="310" y="191" as="targetPoint" />
          </mxGeometry>
        </mxCell>
        <mxCell id="zkfFHV4jXpPFQw0GAbJ--17" value="Address" style="swimlane;fontStyle=0;align=center;verticalAlign=top;childLayout=stackLayout;horizontal=1;startSize=26;horizontalStack=0;resizeParent=1;resizeLast=0;collapsible=1;marginBottom=0;rounded=0;shadow=0;strokeWidth=1;" parent="WIyWlLk6GJQsqaUBKTNV-1" vertex="1">
          <mxGeometry x="508" y="40" width="160" height="216" as="geometry">
            <mxRectangle x="550" y="140" width="160" height="26" as="alternateBounds" />
          </mxGeometry>
        </mxCell>
        <mxCell id="zkfFHV4jXpPFQw0GAbJ--18" value="Street" style="text;align=left;verticalAlign=top;spacingLeft=4;spacingRight=4;overflow=hidden;rotatable=0;points=[[0,0.5],[1,0.5]];portConstraint=eastwest;" parent="zkfFHV4jXpPFQw0GAbJ--17" vertex="1">
          <mxGeometry y="26" width="160" height="26" as="geometry" />
        </mxCell>
        <mxCell id="zkfFHV4jXpPFQw0GAbJ--19" value="City" style="text;align=left;verticalAlign=top;spacingLeft=4;spacingRight=4;overflow=hidden;rotatable=0;points=[[0,0.5],[1,0.5]];portConstraint=eastwest;rounded=0;shadow=0;html=0;" parent="zkfFHV4jXpPFQw0GAbJ--17" vertex="1">
          <mxGeometry y="52" width="160" height="26" as="geometry" />
        </mxCell>
        <mxCell id="zkfFHV4jXpPFQw0GAbJ--20" value="State" style="text;align=left;verticalAlign=top;spacingLeft=4;spacingRight=4;overflow=hidden;rotatable=0;points=[[0,0.5],[1,0.5]];portConstraint=eastwest;rounded=0;shadow=0;html=0;" parent="zkfFHV4jXpPFQw0GAbJ--17" vertex="1">
          <mxGeometry y="78" width="160" height="26" as="geometry" />
        </mxCell>
        <mxCell id="zkfFHV4jXpPFQw0GAbJ--21" value="Postal Code" style="text;align=left;verticalAlign=top;spacingLeft=4;spacingRight=4;overflow=hidden;rotatable=0;points=[[0,0.5],[1,0.5]];portConstraint=eastwest;rounded=0;shadow=0;html=0;" parent="zkfFHV4jXpPFQw0GAbJ--17" vertex="1">
          <mxGeometry y="104" width="160" height="26" as="geometry" />
        </mxCell>
        <mxCell id="zkfFHV4jXpPFQw0GAbJ--22" value="Country" style="text;align=left;verticalAlign=top;spacingLeft=4;spacingRight=4;overflow=hidden;rotatable=0;points=[[0,0.5],[1,0.5]];portConstraint=eastwest;rounded=0;shadow=0;html=0;" parent="zkfFHV4jXpPFQw0GAbJ--17" vertex="1">
          <mxGeometry y="130" width="160" height="26" as="geometry" />
        </mxCell>
        <mxCell id="zkfFHV4jXpPFQw0GAbJ--23" value="" style="line;html=1;strokeWidth=1;align=left;verticalAlign=middle;spacingTop=-1;spacingLeft=3;spacingRight=3;rotatable=0;labelPosition=right;points=[];portConstraint=eastwest;" parent="zkfFHV4jXpPFQw0GAbJ--17" vertex="1">
          <mxGeometry y="156" width="160" height="8" as="geometry" />
        </mxCell>
        <mxCell id="zkfFHV4jXpPFQw0GAbJ--24" value="Validate" style="text;align=left;verticalAlign=top;spacingLeft=4;spacingRight=4;overflow=hidden;rotatable=0;points=[[0,0.5],[1,0.5]];portConstraint=eastwest;" parent="zkfFHV4jXpPFQw0GAbJ--17" vertex="1">
          <mxGeometry y="164" width="160" height="26" as="geometry" />
        </mxCell>
        <mxCell id="zkfFHV4jXpPFQw0GAbJ--25" value="Output As Label" style="text;align=left;verticalAlign=top;spacingLeft=4;spacingRight=4;overflow=hidden;rotatable=0;points=[[0,0.5],[1,0.5]];portConstraint=eastwest;" parent="zkfFHV4jXpPFQw0GAbJ--17" vertex="1">
          <mxGeometry y="190" width="160" height="26" as="geometry" />
        </mxCell>
        <mxCell id="zkfFHV4jXpPFQw0GAbJ--26" value="" style="endArrow=open;shadow=0;strokeWidth=1;rounded=0;endFill=1;edgeStyle=elbowEdgeStyle;elbow=vertical;" parent="WIyWlLk6GJQsqaUBKTNV-1" source="zkfFHV4jXpPFQw0GAbJ--0" target="zkfFHV4jXpPFQw0GAbJ--17" edge="1">
          <mxGeometry x="0.5" y="41" relative="1" as="geometry">
            <mxPoint x="380" y="112" as="sourcePoint" />
            <mxPoint x="540" y="112" as="targetPoint" />
            <mxPoint x="-40" y="32" as="offset" />
          </mxGeometry>
        </mxCell>
        <mxCell id="zkfFHV4jXpPFQw0GAbJ--27" value="0..1" style="resizable=0;align=left;verticalAlign=bottom;labelBackgroundColor=none;fontSize=12;" parent="zkfFHV4jXpPFQw0GAbJ--26" connectable="0" vertex="1">
          <mxGeometry x="-1" relative="1" as="geometry">
            <mxPoint y="4" as="offset" />
          </mxGeometry>
        </mxCell>
        <mxCell id="zkfFHV4jXpPFQw0GAbJ--28" value="1" style="resizable=0;align=right;verticalAlign=bottom;labelBackgroundColor=none;fontSize=12;" parent="zkfFHV4jXpPFQw0GAbJ--26" connectable="0" vertex="1">
          <mxGeometry x="1" relative="1" as="geometry">
            <mxPoint x="-7" y="4" as="offset" />
          </mxGeometry>
        </mxCell>
        <mxCell id="zkfFHV4jXpPFQw0GAbJ--29" value="lives at" style="text;html=1;resizable=0;points=[];;align=center;verticalAlign=middle;labelBackgroundColor=none;rounded=0;shadow=0;strokeWidth=1;fontSize=12;" parent="zkfFHV4jXpPFQw0GAbJ--26" vertex="1" connectable="0">
          <mxGeometry x="0.5" y="49" relative="1" as="geometry">
            <mxPoint x="-38" y="40" as="offset" />
          </mxGeometry>
        </mxCell>
        <mxCell id="HejnS7aC1Yo_eCcSYMb3-0" value="TaskQueue" style="swimlane;whiteSpace=wrap;fillColor=#dae8fc;strokeColor=#000000;" vertex="1" parent="WIyWlLk6GJQsqaUBKTNV-1">
          <mxGeometry x="560" y="484" width="260" height="610" as="geometry" />
        </mxCell>
        <mxCell id="HejnS7aC1Yo_eCcSYMb3-1" value="创建RequestRunned" style="" vertex="1" parent="HejnS7aC1Yo_eCcSYMb3-0">
          <mxGeometry x="75.5" y="359" width="130" height="30" as="geometry" />
        </mxCell>
        <mxCell id="HejnS7aC1Yo_eCcSYMb3-2" value="查询任务状态" style="" vertex="1" parent="HejnS7aC1Yo_eCcSYMb3-0">
          <mxGeometry x="75.5" y="562" width="130" height="30" as="geometry" />
        </mxCell>
        <mxCell id="HejnS7aC1Yo_eCcSYMb3-4" value="创建RequestRunner" style="" vertex="1" parent="HejnS7aC1Yo_eCcSYMb3-0">
          <mxGeometry x="75.5" y="107" width="130" height="30" as="geometry" />
        </mxCell>
        <mxCell id="HejnS7aC1Yo_eCcSYMb3-6" value="创建RequestRunning" style="" vertex="1" parent="HejnS7aC1Yo_eCcSYMb3-0">
          <mxGeometry x="75.5" y="266" width="130" height="30" as="geometry" />
        </mxCell>
        <mxCell id="HejnS7aC1Yo_eCcSYMb3-51" value="定时分发edf_job&#xa;POST  /out/createtask" style="fillColor=#ffe6cc;strokeColor=#d79b00;" vertex="1" parent="HejnS7aC1Yo_eCcSYMb3-0">
          <mxGeometry x="75.5" y="173" width="130" height="40" as="geometry" />
        </mxCell>
        <mxCell id="HejnS7aC1Yo_eCcSYMb3-7" value="EBC tax" style="swimlane;whiteSpace=wrap" vertex="1" parent="WIyWlLk6GJQsqaUBKTNV-1">
          <mxGeometry x="40" y="484" width="260" height="610" as="geometry" />
        </mxCell>
        <mxCell id="HejnS7aC1Yo_eCcSYMb3-8" value="" style="ellipse;shape=startState;fillColor=#000000;strokeColor=#ff0000;" vertex="1" parent="HejnS7aC1Yo_eCcSYMb3-7">
          <mxGeometry x="125" y="40" width="30" height="30" as="geometry" />
        </mxCell>
        <mxCell id="HejnS7aC1Yo_eCcSYMb3-9" value="" style="edgeStyle=elbowEdgeStyle;elbow=horizontal;verticalAlign=bottom;endArrow=open;endSize=8;strokeColor=#FF0000;endFill=1;rounded=0;entryX=0.486;entryY=-0.032;entryDx=0;entryDy=0;entryPerimeter=0;" edge="1" parent="HejnS7aC1Yo_eCcSYMb3-7" source="HejnS7aC1Yo_eCcSYMb3-8" target="HejnS7aC1Yo_eCcSYMb3-16">
          <mxGeometry x="100" y="40" as="geometry">
            <mxPoint x="115" y="110" as="targetPoint" />
          </mxGeometry>
        </mxCell>
        <mxCell id="HejnS7aC1Yo_eCcSYMb3-10" value="创建edf_rpa_user_task" style="" vertex="1" parent="HejnS7aC1Yo_eCcSYMb3-7">
          <mxGeometry x="75" y="110" width="130" height="30" as="geometry" />
        </mxCell>
        <mxCell id="HejnS7aC1Yo_eCcSYMb3-11" value="" style="endArrow=open;strokeColor=#FF0000;endFill=1;rounded=0;entryX=0.496;entryY=0.029;entryDx=0;entryDy=0;entryPerimeter=0;exitX=0.504;exitY=0.7;exitDx=0;exitDy=0;exitPerimeter=0;" edge="1" parent="HejnS7aC1Yo_eCcSYMb3-7" source="HejnS7aC1Yo_eCcSYMb3-16" target="HejnS7aC1Yo_eCcSYMb3-14">
          <mxGeometry relative="1" as="geometry" />
        </mxCell>
        <mxCell id="HejnS7aC1Yo_eCcSYMb3-12" value="" style="endArrow=open;strokeColor=#FF0000;endFill=1;rounded=0;entryX=0.496;entryY=0.051;entryDx=0;entryDy=0;entryPerimeter=0;" edge="1" parent="HejnS7aC1Yo_eCcSYMb3-7" source="HejnS7aC1Yo_eCcSYMb3-14" target="HejnS7aC1Yo_eCcSYMb3-18">
          <mxGeometry relative="1" as="geometry">
            <mxPoint x="140.5" y="252" as="targetPoint" />
          </mxGeometry>
        </mxCell>
        <mxCell id="HejnS7aC1Yo_eCcSYMb3-13" value="post  /SBRelation/qyxx" style="" vertex="1" parent="HejnS7aC1Yo_eCcSYMb3-7">
          <mxGeometry x="75" y="414" width="130" height="30" as="geometry" />
        </mxCell>
        <mxCell id="HejnS7aC1Yo_eCcSYMb3-14" value="创建edf_rpa_task" style="" vertex="1" parent="HejnS7aC1Yo_eCcSYMb3-7">
          <mxGeometry x="75" y="189" width="130" height="30" as="geometry" />
        </mxCell>
        <mxCell id="HejnS7aC1Yo_eCcSYMb3-15" value="定时刷任务状态&#xa;post  /SBRelation/result" style="fillColor=#ffe6cc;strokeColor=#d79b00;" vertex="1" parent="HejnS7aC1Yo_eCcSYMb3-7">
          <mxGeometry x="75" y="561" width="130" height="30" as="geometry" />
        </mxCell>
        <mxCell id="HejnS7aC1Yo_eCcSYMb3-16" value="创建edf_rpa_user_task" style="" vertex="1" parent="HejnS7aC1Yo_eCcSYMb3-7">
          <mxGeometry x="75" y="110" width="130" height="30" as="geometry" />
        </mxCell>
        <mxCell id="HejnS7aC1Yo_eCcSYMb3-17" value="" style="endArrow=open;strokeColor=#FF0000;endFill=1;rounded=0;" edge="1" parent="HejnS7aC1Yo_eCcSYMb3-7">
          <mxGeometry relative="1" as="geometry">
            <mxPoint x="139.5" y="352" as="targetPoint" />
            <mxPoint x="139.81" y="301.2399999999999" as="sourcePoint" />
          </mxGeometry>
        </mxCell>
        <mxCell id="HejnS7aC1Yo_eCcSYMb3-18" value="post  /AGG/org/create" style="" vertex="1" parent="HejnS7aC1Yo_eCcSYMb3-7">
          <mxGeometry x="75" y="292" width="130" height="30" as="geometry" />
        </mxCell>
        <mxCell id="HejnS7aC1Yo_eCcSYMb3-19" value="" style="endArrow=open;strokeColor=#FF0000;endFill=1;rounded=0;" edge="1" parent="HejnS7aC1Yo_eCcSYMb3-7">
          <mxGeometry relative="1" as="geometry">
            <mxPoint x="139.5" y="412" as="targetPoint" />
            <mxPoint x="139.59999999999997" y="371.9999999999998" as="sourcePoint" />
          </mxGeometry>
        </mxCell>
        <mxCell id="HejnS7aC1Yo_eCcSYMb3-20" value="post  /AGG/org/tax-login-info/save" style="" vertex="1" parent="HejnS7aC1Yo_eCcSYMb3-7">
          <mxGeometry x="75" y="353" width="130" height="30" as="geometry" />
        </mxCell>
        <mxCell id="HejnS7aC1Yo_eCcSYMb3-21" value="" style="edgeStyle=elbowEdgeStyle;elbow=horizontal;strokeColor=#FF0000;endArrow=open;endFill=1;rounded=0;entryX=0.011;entryY=0.54;entryDx=0;entryDy=0;entryPerimeter=0;" edge="1" parent="HejnS7aC1Yo_eCcSYMb3-7" target="HejnS7aC1Yo_eCcSYMb3-47">
          <mxGeometry width="100" height="100" relative="1" as="geometry">
            <mxPoint x="205.5" y="577" as="sourcePoint" />
            <mxPoint x="325.5" y="577" as="targetPoint" />
            <Array as="points">
              <mxPoint x="266" y="575" />
            </Array>
          </mxGeometry>
        </mxCell>
        <mxCell id="HejnS7aC1Yo_eCcSYMb3-22" value="&lt;span style=&quot;font-family: &amp;#34;helvetica&amp;#34; ; font-size: 11px ; background-color: rgb(255 , 255 , 255)&quot;&gt;post /edf/org//getNSRXXLocal&lt;/span&gt;" style="text;html=1;strokeColor=none;fillColor=none;align=center;verticalAlign=middle;whiteSpace=wrap;rounded=0;" vertex="1" parent="HejnS7aC1Yo_eCcSYMb3-7">
          <mxGeometry x="45.5" y="62" width="60" height="30" as="geometry" />
        </mxCell>
        <mxCell id="HejnS7aC1Yo_eCcSYMb3-26" value="" style="edgeStyle=elbowEdgeStyle;elbow=horizontal;strokeColor=#FF0000;endArrow=open;endFill=1;rounded=0;exitX=1.002;exitY=0.545;exitDx=0;exitDy=0;exitPerimeter=0;entryX=-0.009;entryY=0.543;entryDx=0;entryDy=0;entryPerimeter=0;" edge="1" parent="WIyWlLk6GJQsqaUBKTNV-1" source="HejnS7aC1Yo_eCcSYMb3-13" target="HejnS7aC1Yo_eCcSYMb3-46">
          <mxGeometry width="100" height="100" relative="1" as="geometry">
            <mxPoint x="210" y="836" as="sourcePoint" />
            <mxPoint x="295.5" y="866" as="targetPoint" />
            <Array as="points">
              <mxPoint x="260.5" y="926" />
            </Array>
          </mxGeometry>
        </mxCell>
        <mxCell id="HejnS7aC1Yo_eCcSYMb3-27" value="" style="edgeStyle=elbowEdgeStyle;elbow=horizontal;strokeColor=#FF0000;endArrow=open;endFill=1;rounded=0;exitX=1.002;exitY=0.516;exitDx=0;exitDy=0;exitPerimeter=0;" edge="1" parent="WIyWlLk6GJQsqaUBKTNV-1" source="HejnS7aC1Yo_eCcSYMb3-44">
          <mxGeometry width="100" height="100" relative="1" as="geometry">
            <mxPoint x="532.6700000000001" y="598.65" as="sourcePoint" />
            <mxPoint x="635.5" y="598.0000000000001" as="targetPoint" />
            <Array as="points">
              <mxPoint x="625.5" y="598" />
            </Array>
          </mxGeometry>
        </mxCell>
        <mxCell id="HejnS7aC1Yo_eCcSYMb3-28" value="" style="endArrow=open;strokeColor=#FF0000;endFill=1;rounded=0;exitX=1.002;exitY=0.495;exitDx=0;exitDy=0;exitPerimeter=0;entryX=-0.005;entryY=0.5;entryDx=0;entryDy=0;entryPerimeter=0;" edge="1" parent="WIyWlLk6GJQsqaUBKTNV-1" source="HejnS7aC1Yo_eCcSYMb3-18" target="HejnS7aC1Yo_eCcSYMb3-41">
          <mxGeometry relative="1" as="geometry">
            <mxPoint x="265.5" y="791" as="sourcePoint" />
            <mxPoint x="355.5" y="791" as="targetPoint" />
          </mxGeometry>
        </mxCell>
        <mxCell id="HejnS7aC1Yo_eCcSYMb3-29" value="" style="endArrow=open;strokeColor=#FF0000;endFill=1;rounded=0;entryX=-0.003;entryY=0.474;entryDx=0;entryDy=0;entryPerimeter=0;" edge="1" parent="WIyWlLk6GJQsqaUBKTNV-1" target="HejnS7aC1Yo_eCcSYMb3-42">
          <mxGeometry relative="1" as="geometry">
            <mxPoint x="245.5" y="852" as="sourcePoint" />
            <mxPoint x="395.5" y="852" as="targetPoint" />
          </mxGeometry>
        </mxCell>
        <mxCell id="HejnS7aC1Yo_eCcSYMb3-30" value="" style="edgeStyle=orthogonalEdgeStyle;elbow=horizontal;strokeColor=#FF0000;endArrow=open;endFill=1;rounded=0;entryX=0;entryY=0.467;entryDx=0;entryDy=0;entryPerimeter=0;exitX=1.008;exitY=0.601;exitDx=0;exitDy=0;exitPerimeter=0;" edge="1" parent="WIyWlLk6GJQsqaUBKTNV-1" source="HejnS7aC1Yo_eCcSYMb3-51" target="HejnS7aC1Yo_eCcSYMb3-33">
          <mxGeometry width="100" height="100" relative="1" as="geometry">
            <mxPoint x="780" y="694" as="sourcePoint" />
            <mxPoint x="915.5" y="632" as="targetPoint" />
            <Array as="points">
              <mxPoint x="766" y="680" />
            </Array>
          </mxGeometry>
        </mxCell>
        <mxCell id="HejnS7aC1Yo_eCcSYMb3-31" value="" style="endArrow=open;strokeColor=#FF0000;endFill=1;rounded=0;entryX=1.006;entryY=0.563;entryDx=0;entryDy=0;entryPerimeter=0;" edge="1" parent="WIyWlLk6GJQsqaUBKTNV-1" source="HejnS7aC1Yo_eCcSYMb3-37" target="HejnS7aC1Yo_eCcSYMb3-1">
          <mxGeometry relative="1" as="geometry">
            <mxPoint x="865.5899999999996" y="781.9999999999999" as="sourcePoint" />
            <mxPoint x="865.4999999999994" y="852.0000000000001" as="targetPoint" />
          </mxGeometry>
        </mxCell>
        <mxCell id="HejnS7aC1Yo_eCcSYMb3-32" value="Robot" style="swimlane;whiteSpace=wrap" vertex="1" parent="WIyWlLk6GJQsqaUBKTNV-1">
          <mxGeometry x="820" y="484" width="260" height="610" as="geometry" />
        </mxCell>
        <mxCell id="HejnS7aC1Yo_eCcSYMb3-33" value="启动任务" style="" vertex="1" parent="HejnS7aC1Yo_eCcSYMb3-32">
          <mxGeometry x="75.5" y="182" width="110" height="30" as="geometry" />
        </mxCell>
        <mxCell id="HejnS7aC1Yo_eCcSYMb3-34" value="" style="endArrow=open;strokeColor=#FF0000;endFill=1;rounded=0;" edge="1" parent="HejnS7aC1Yo_eCcSYMb3-32">
          <mxGeometry relative="1" as="geometry">
            <mxPoint x="129.99999999999955" y="212" as="sourcePoint" />
            <mxPoint x="129.5" y="266" as="targetPoint" />
          </mxGeometry>
        </mxCell>
        <mxCell id="HejnS7aC1Yo_eCcSYMb3-35" value="" style="endArrow=open;strokeColor=#FF0000;endFill=1;rounded=0;exitX=0.5;exitY=1;exitDx=0;exitDy=0;" edge="1" parent="HejnS7aC1Yo_eCcSYMb3-32" source="HejnS7aC1Yo_eCcSYMb3-36">
          <mxGeometry relative="1" as="geometry">
            <mxPoint x="130.40999999999963" y="305" as="sourcePoint" />
            <mxPoint x="129.90999999999963" y="359" as="targetPoint" />
          </mxGeometry>
        </mxCell>
        <mxCell id="HejnS7aC1Yo_eCcSYMb3-36" value="执行任务" style="" vertex="1" parent="HejnS7aC1Yo_eCcSYMb3-32">
          <mxGeometry x="75.5" y="266" width="110" height="30" as="geometry" />
        </mxCell>
        <mxCell id="HejnS7aC1Yo_eCcSYMb3-37" value="完成任务" style="" vertex="1" parent="HejnS7aC1Yo_eCcSYMb3-32">
          <mxGeometry x="75.5" y="359" width="110" height="30" as="geometry" />
        </mxCell>
        <mxCell id="HejnS7aC1Yo_eCcSYMb3-38" value="" style="edgeStyle=elbowEdgeStyle;elbow=horizontal;strokeColor=#FF0000;endArrow=open;endFill=1;rounded=0;entryX=0;entryY=0.433;entryDx=0;entryDy=0;entryPerimeter=0;" edge="1" parent="WIyWlLk6GJQsqaUBKTNV-1" source="HejnS7aC1Yo_eCcSYMb3-47" target="HejnS7aC1Yo_eCcSYMb3-2">
          <mxGeometry width="100" height="100" relative="1" as="geometry">
            <mxPoint x="515.5" y="1060.5" as="sourcePoint" />
            <mxPoint x="635.5" y="1060.5" as="targetPoint" />
            <Array as="points">
              <mxPoint x="446" y="1061" />
            </Array>
          </mxGeometry>
        </mxCell>
        <mxCell id="HejnS7aC1Yo_eCcSYMb3-40" value="AGG sb" style="swimlane;whiteSpace=wrap" vertex="1" parent="WIyWlLk6GJQsqaUBKTNV-1">
          <mxGeometry x="300.5" y="484" width="260" height="610" as="geometry" />
        </mxCell>
        <mxCell id="HejnS7aC1Yo_eCcSYMb3-41" value="创建agg_org" style="" vertex="1" parent="HejnS7aC1Yo_eCcSYMb3-40">
          <mxGeometry x="90" y="292" width="110" height="30" as="geometry" />
        </mxCell>
        <mxCell id="HejnS7aC1Yo_eCcSYMb3-42" value="创建agg_org_tax_login" style="" vertex="1" parent="HejnS7aC1Yo_eCcSYMb3-40">
          <mxGeometry x="80.5" y="353" width="129" height="30" as="geometry" />
        </mxCell>
        <mxCell id="HejnS7aC1Yo_eCcSYMb3-43" value="创建edf_job" style="" vertex="1" parent="HejnS7aC1Yo_eCcSYMb3-40">
          <mxGeometry x="90" y="475" width="110" height="30" as="geometry" />
        </mxCell>
        <mxCell id="HejnS7aC1Yo_eCcSYMb3-44" value="定时分发edf_job&#xa;POST  /out/createtask" style="fillColor=#ffe6cc;strokeColor=#d79b00;" vertex="1" parent="HejnS7aC1Yo_eCcSYMb3-40">
          <mxGeometry x="80" y="93" width="130" height="40" as="geometry" />
        </mxCell>
        <mxCell id="HejnS7aC1Yo_eCcSYMb3-45" value="" style="endArrow=open;strokeColor=#FF0000;endFill=1;rounded=0;exitX=0.5;exitY=1;exitDx=0;exitDy=0;entryX=0.5;entryY=0;entryDx=0;entryDy=0;" edge="1" parent="HejnS7aC1Yo_eCcSYMb3-40" source="HejnS7aC1Yo_eCcSYMb3-46" target="HejnS7aC1Yo_eCcSYMb3-43">
          <mxGeometry relative="1" as="geometry">
            <mxPoint x="146" y="472" as="targetPoint" />
            <mxPoint x="100.00999999999988" y="443.9999999999998" as="sourcePoint" />
          </mxGeometry>
        </mxCell>
        <mxCell id="HejnS7aC1Yo_eCcSYMb3-46" value="创建edf_job_history" style="" vertex="1" parent="HejnS7aC1Yo_eCcSYMb3-40">
          <mxGeometry x="90" y="414" width="110" height="30" as="geometry" />
        </mxCell>
        <mxCell id="HejnS7aC1Yo_eCcSYMb3-47" value="POST  /out/queryresult" style="" vertex="1" parent="HejnS7aC1Yo_eCcSYMb3-40">
          <mxGeometry x="80" y="561" width="130" height="30" as="geometry" />
        </mxCell>
        <mxCell id="HejnS7aC1Yo_eCcSYMb3-5" value="" style="endArrow=open;strokeColor=#FF0000;endFill=1;rounded=0;entryX=0.997;entryY=0.492;entryDx=0;entryDy=0;entryPerimeter=0;exitX=-0.015;exitY=0.486;exitDx=0;exitDy=0;exitPerimeter=0;" edge="1" parent="WIyWlLk6GJQsqaUBKTNV-1" source="HejnS7aC1Yo_eCcSYMb3-36" target="HejnS7aC1Yo_eCcSYMb3-6">
          <mxGeometry relative="1" as="geometry">
            <mxPoint x="900" y="717" as="sourcePoint" />
            <mxPoint x="840" y="760" as="targetPoint" />
          </mxGeometry>
        </mxCell>
      </root>
    </mxGraphModel>
  </diagram>
</mxfile>
